{"asset":{"version":"2.0","generator":"VECTARY"},"nodes":[{"translation":[0,0,0],"scale":[0.001,0.001,0.001],"rotation":[-0.7071067811865475,0,0,0.7071067811865476],"name":"ONN","mesh":0}],"materials":[{"pbrMetallicRoughness":{"baseColorFactor":[0.8670237934377415,0.8670237934377415,0.8670237934377415,1],"metallicFactor":0,"roughnessFactor":0.2},"name":"Best of Summer","emissiveFactor":[0,0,0],"extensions":{},"alphaMode":"OPAQUE","doubleSided":false}],"meshes":[{"primitives":[{"mode":4,"attributes":{"POSITION":0,"NORMAL":1,"TEXCOORD_0":2},"material":0}]}],"accessors":[{"bufferView":0,"byteOffset":0,"componentType":5126,"count":49344,"max":[0.6598835587501526,1.1417336463928223,1.6711597442626953],"min":[-0.6598834991455078,-1.1417336463928223,-0.9853026866912842],"type":"VEC3"},{"bufferView":1,"byteOffset":0,"componentType":5126,"count":49344,"type":"VEC3"},{"bufferView":2,"byteOffset":0,"componentType":5126,"count":49344,"type":"VEC2"}],"bufferViews":[{"buffer":0,"byteOffset":0,"byteLength":592128,"target":34962},{"buffer":0,"byteOffset":592128,"byteLength":592128,"target":34962},{"buffer":0,"byteOffset":1184256,"byteLength":394752,"target":34962}],"scene":0,"scenes":[{"nodes":[0],"name":"Project Name"}],"extensionsUsed":["KHR_texture_transform"],"buffers":[{"byteLength":1579008,"uri":"ProjectName.bin"}]}